<svg width="24" height="24" viewBox="0 0 24 24" fill="none" xmlns="http://www.w3.org/2000/svg">
<path d="M4.1052 3.09594C4.34568 3.02834 4.59969 3.02361 4.8425 3.08227L4.8552 3.0852L15.3913 5.85375H15.3904C15.6562 5.92016 15.8986 6.05945 16.0886 6.25707C16.2812 6.45746 16.4129 6.70914 16.4675 6.98168L17.4265 11.7786C17.5577 11.7405 17.6947 11.72 17.8337 11.72C18.2203 11.7201 18.5916 11.8734 18.865 12.1467L20.1863 13.469C20.4596 13.7424 20.613 14.1136 20.613 14.5002C20.6129 14.8867 20.4594 15.2572 20.1863 15.5305L15.531 20.1858C15.2577 20.459 14.8871 20.6124 14.5007 20.6125C14.1141 20.6125 13.7429 20.4591 13.4695 20.1858L12.1472 18.8645C11.8738 18.591 11.7205 18.2199 11.7204 17.8332C11.7204 17.6942 11.7399 17.5572 11.7781 17.426L6.98215 16.467C6.70953 16.4125 6.45798 16.2808 6.25754 16.0881C6.05992 15.8981 5.92063 15.6557 5.85422 15.3899V15.3909L3.08567 4.85473L3.08274 4.84203C3.02412 4.59925 3.02881 4.34517 3.09641 4.10473C3.16409 3.8643 3.29187 3.64462 3.46848 3.46801C3.64513 3.2914 3.86474 3.16358 4.1052 3.09594ZM17.8337 12.97C17.7787 12.97 17.7253 12.9917 17.6863 13.0305L13.2771 17.4387C13.2738 17.442 13.2706 17.4453 13.2673 17.4485L13.031 17.6858C12.9921 17.7248 12.9705 17.7781 12.9704 17.8332C12.9705 17.8884 12.992 17.9417 13.031 17.9807L14.3532 19.302L14.3845 19.3284C14.4184 19.3509 14.4593 19.3625 14.5007 19.3625C14.5556 19.3624 14.6083 19.3408 14.6472 19.302L19.3025 14.6467L19.3288 14.6155C19.3513 14.5817 19.3629 14.5414 19.363 14.5002C19.363 14.4589 19.3514 14.4179 19.3288 14.384L19.3025 14.3528L17.9812 13.0305C17.9422 12.9916 17.8888 12.9701 17.8337 12.97ZM10.0505 9.16625C10.381 8.98141 10.7613 8.87528 11.1667 8.87524C12.4322 8.87541 13.4577 9.90168 13.4577 11.1672C13.4574 12.4325 12.432 13.4581 11.1667 13.4582C9.90141 13.4581 8.8751 12.4325 8.87473 11.1672C8.87473 10.7615 8.98169 10.3807 9.16672 10.05L4.52219 5.40649L7.06321 15.0735L7.06614 15.0852C7.07542 15.1237 7.09528 15.1593 7.12375 15.1868C7.15228 15.2142 7.18849 15.2326 7.22727 15.2405L12.6277 16.3205L16.321 12.6272L15.2409 7.2268C15.2331 7.18809 15.2146 7.15176 15.1872 7.12328C15.1597 7.09481 15.1242 7.07495 15.0857 7.06566L15.0739 7.06274L5.40696 4.52172L10.0505 9.16625ZM11.1667 10.1252C10.5915 10.1254 10.1247 10.592 10.1247 11.1672C10.1251 11.7421 10.5918 12.2081 11.1667 12.2082C11.7416 12.2081 12.2074 11.7421 12.2077 11.1672C12.2077 10.592 11.7419 10.1254 11.1667 10.1252Z" fill="#262626"/>
</svg>
