<svg width="24" height="24" viewBox="0 0 24 24" fill="none" xmlns="http://www.w3.org/2000/svg">
<path d="M6.7334 13.0303C8.79537 13.0303 10.4676 14.7017 10.4678 16.7637L10.4629 16.9561C10.3628 18.9288 8.73098 20.498 6.7334 20.498L6.54199 20.4932C4.5691 20.3934 3.00014 18.7613 3 16.7637C3.00018 14.7019 4.67158 13.0305 6.7334 13.0303ZM18.6895 13.041C19.698 13.1434 20.4854 13.9947 20.4854 15.0303V18.498L20.4746 18.7021C20.3789 19.6433 19.6307 20.3917 18.6895 20.4873L18.4854 20.498H15.0176L14.8135 20.4873C13.8722 20.3918 13.124 19.6434 13.0283 18.7021L13.0176 18.498V15.0303C13.0176 13.9258 13.9131 13.0304 15.0176 13.0303H18.4854L18.6895 13.041ZM15.0176 14.2803C14.6035 14.2804 14.2676 14.6161 14.2676 15.0303V18.498C14.2679 18.9119 14.6037 19.2479 15.0176 19.248H18.4854C18.8992 19.2479 19.235 18.9119 19.2354 18.498V15.0303C19.2354 14.6162 18.8994 14.2804 18.4854 14.2803H15.0176ZM6.7334 14.2803C5.36194 14.2805 4.25018 15.3922 4.25 16.7637C4.25015 18.1352 5.36192 19.2479 6.7334 19.248C8.10503 19.248 9.21763 18.1353 9.21777 16.7637C9.21759 15.3921 8.10501 14.2803 6.7334 14.2803ZM19.9658 3.00879C20.6474 3.10169 21.0494 3.86537 20.6982 4.49023L17.6162 9.96777C17.2339 10.6474 16.2554 10.6474 15.873 9.96777L12.792 4.49023C12.4405 3.8653 12.8417 3.10172 13.5234 3.00879L13.6631 3H19.8262L19.9658 3.00879ZM8.67188 3.01074C9.68039 3.11316 10.4678 3.96446 10.4678 5V8.46777L10.457 8.67188C10.3615 9.6132 9.61319 10.3615 8.67188 10.457L8.46777 10.4678H5L4.7959 10.457C3.85443 10.3616 3.10633 9.61329 3.01074 8.67188L3 8.46777V5C3 3.89543 3.89543 3 5 3H8.46777L8.67188 3.01074ZM5 4.25C4.58579 4.25 4.25 4.58579 4.25 5V8.46777C4.25017 8.88185 4.58589 9.21777 5 9.21777H8.46777C8.88173 9.21759 9.21761 8.88173 9.21777 8.46777V5C9.21777 4.5859 8.88183 4.25018 8.46777 4.25H5ZM16.7451 8.96875L19.3984 4.25H14.0908L16.7451 8.96875Z" fill="#262626"/>
</svg>
