<svg  viewBox="0 0 32 32" fill="none" xmlns="http://www.w3.org/2000/svg">
<path fill-rule="evenodd" clip-rule="evenodd" d="M12.0869 7.76076C13.1404 7.76077 14.1072 8.14173 14.8535 8.77248C15.1698 9.03986 15.2097 9.51378 14.9424 9.83009C14.6749 10.1463 14.202 10.1854 13.8857 9.91799C13.4 9.50735 12.773 9.26077 12.0869 9.26076C10.5476 9.26083 9.30005 10.5087 9.2998 12.0479C9.2998 12.1505 9.30473 12.2523 9.31543 12.3516C9.31682 12.3645 9.31569 12.3777 9.31641 12.3906C9.38982 12.9382 9.63619 13.3482 9.91504 13.6377C10.2173 13.9514 10.5171 14.0849 10.6064 14.1055C11.0101 14.1975 11.2636 14.5993 11.1719 15.0029C11.0798 15.4068 10.6773 15.6594 10.2734 15.5674C9.84275 15.4692 9.2952 15.1563 8.83496 14.6787C8.58272 14.4169 8.34672 14.0929 8.16211 13.708C7.43192 14.5123 6.91713 15.7946 6.91699 17.1709C6.91699 17.8261 7.03598 18.561 7.25195 19.2324C7.29121 19.3544 7.33384 19.4724 7.37793 19.586C7.5788 19.2247 7.83748 18.868 8.16016 18.6133C8.48526 18.3569 8.9573 18.4123 9.21387 18.7373C9.47019 19.0623 9.4146 19.5344 9.08984 19.791C8.94918 19.9021 8.77176 20.1318 8.60742 20.4658C8.45797 20.7697 8.34701 21.1059 8.28809 21.4004C8.2812 21.4873 8.27736 21.5752 8.27734 21.6641C8.27734 23.4857 9.75433 24.9629 11.5762 24.9629C13.3978 24.9627 14.874 23.4855 14.874 21.6641L14.875 15.7637C14.8751 15.3496 15.2108 15.0137 15.625 15.0137C16.0389 15.014 16.3749 15.3497 16.375 15.7637L16.374 21.6455C16.3742 21.6519 16.375 21.6586 16.375 21.6651C16.3752 23.4865 17.8521 24.9639 19.6738 24.9639C21.4954 24.9638 22.9725 23.4864 22.9727 21.6651C22.9727 21.5742 22.9681 21.4842 22.9609 21.3955C22.9017 21.1023 22.7922 20.768 22.6436 20.4658C22.4792 20.1317 22.3018 19.9021 22.1611 19.791C21.8361 19.5344 21.7805 19.0624 22.0371 18.7373C22.2938 18.4123 22.7657 18.3567 23.0908 18.6133C23.413 18.8677 23.6703 19.2242 23.8711 19.585C23.915 19.4719 23.958 19.3549 23.9971 19.2334C24.2131 18.562 24.332 17.8271 24.332 17.1719C24.332 16.6045 24.243 16.0396 24.0801 15.5127C23.9577 15.117 24.1795 14.6967 24.5752 14.5742C24.9709 14.452 25.3913 14.6737 25.5137 15.0694C25.7195 15.735 25.832 16.4493 25.832 17.1719C25.832 17.9937 25.6861 18.8832 25.4258 19.6924C25.2047 20.3794 24.8852 21.0505 24.4697 21.582C24.4702 21.6096 24.4727 21.6374 24.4727 21.6651C24.4725 24.3149 22.3238 26.4638 19.6738 26.4639C17.9708 26.4639 16.4758 25.5757 15.624 24.2383C14.7724 25.5752 13.2787 26.4628 11.5762 26.4629C8.92598 26.4629 6.77734 24.3142 6.77734 21.6641C6.77735 21.6367 6.77786 21.6093 6.77832 21.582C6.36309 21.0506 6.04523 20.3792 5.82422 19.6924C5.56383 18.883 5.41699 17.9929 5.41699 17.1709C5.41715 15.1482 6.31996 13.0805 7.7998 12.0303C7.80952 9.67076 9.72509 7.76083 12.0869 7.76076ZM18.8213 7.72756C19.1056 6.43029 20.9541 6.42163 21.25 7.71681L21.2881 7.88478C21.6462 9.45446 22.9118 10.6555 24.498 10.9317C25.8508 11.167 25.8509 13.1094 24.498 13.3447C22.9117 13.6209 21.6462 14.8228 21.2881 16.3926L21.25 16.5596C20.9546 17.8555 19.1054 17.8466 18.8213 16.5488L18.79 16.4053C18.445 14.8296 17.1811 13.6193 15.5918 13.3428C14.2422 13.1076 14.242 11.1697 15.5918 10.9346L15.8857 10.8721C17.3356 10.5055 18.4666 9.3485 18.79 7.87111L18.8213 7.72756ZM20.0391 8.92677C19.4884 10.4107 18.3211 11.5814 16.8486 12.1387C18.3207 12.6959 19.4873 13.8662 20.0381 15.3496C20.5964 13.861 21.7751 12.6923 23.2559 12.1377C21.7753 11.583 20.5973 10.4153 20.0391 8.92677Z" fill="#1E1E1E"/>
</svg>
